<svg version="1.1" id="Layer_1" xmlns="http://www.w3.org/2000/svg" xmlns:xlink="http://www.w3.org/1999/xlink" x="0px" y="0px"
	 width="100%" viewBox="0 0 4500 3000" enable-background="new 0 0 4500 3000" xml:space="preserve">
<path fill="#000000" opacity="1.000000" stroke="none" 
	d="
M3198.000000,3002.000000 
	C2132.000000,3002.000000 1067.000000,3002.000000 2.000000,3002.000000 
	C2.000000,2002.000000 2.000000,1002.000000 2.000000,2.000000 
	C1502.000000,2.000000 3002.000000,2.000000 4502.000000,2.000000 
	C4502.000000,1002.000000 4502.000000,2002.000000 4502.000000,3002.000000 
	C4067.666748,3002.000000 3633.333252,3002.000000 3198.000000,3002.000000 
M1620.418091,1282.200439 
	C1620.865723,1282.534912 1621.313477,1282.869507 1621.516113,1284.612061 
	C1614.533569,1297.838867 1607.198853,1310.893433 1600.630005,1324.322632 
	C1573.880981,1379.007812 1550.915771,1435.216919 1533.018677,1493.458130 
	C1519.161377,1538.553345 1508.089966,1584.321899 1500.420654,1630.849243 
	C1493.841064,1670.766235 1489.655273,1710.958618 1488.209106,1751.448975 
	C1486.889404,1788.401611 1487.247070,1825.326782 1490.546631,1862.102417 
	C1493.833374,1898.732666 1499.536987,1935.064331 1507.792358,1970.991943 
	C1527.263062,2055.730225 1560.308838,2134.635742 1608.314697,2207.174072 
	C1641.879883,2257.892578 1681.387817,2303.464111 1726.590576,2344.222412 
	C1763.032471,2377.081299 1802.181519,2406.215820 1844.302734,2431.231445 
	C1904.592041,2467.037109 1968.522827,2494.436523 2036.248657,2513.022705 
	C2088.247803,2527.292969 2141.138916,2536.211914 2194.854248,2539.401611 
	C2226.688721,2541.292480 2258.633057,2541.013916 2290.578125,2538.588379 
	C2318.400635,2536.476318 2345.975830,2533.109131 2373.361572,2528.028809 
	C2432.458496,2517.065918 2489.117188,2498.491943 2543.092041,2472.091309 
	C2619.555908,2434.690918 2686.110107,2384.183105 2742.953857,2320.685547 
	C2790.647461,2267.408691 2828.250977,2207.733154 2857.259766,2142.637451 
	C2884.677734,2081.111572 2903.305176,2016.885620 2914.629639,1950.418213 
	C2922.898438,1901.886963 2926.645264,1853.054199 2927.569092,1803.943481 
	C2927.805908,1791.347534 2926.881592,1778.723511 2926.312256,1766.120483 
	C2925.788574,1754.522827 2924.901855,1742.941284 2924.392334,1731.343262 
	C2923.123535,1702.474854 2918.896484,1673.962402 2914.165283,1645.515381 
	C2906.690430,1600.574341 2895.547607,1556.524414 2880.857422,1513.420776 
	C2866.692627,1471.858887 2849.435059,1431.627808 2828.734131,1392.821289 
	C2797.217773,1333.740356 2758.272217,1280.166748 2711.613770,1232.216675 
	C2683.746338,1203.577759 2653.821045,1177.247070 2621.950195,1153.074951 
	C2559.726074,1105.882202 2491.765137,1069.586426 2418.043213,1043.861572 
	C2341.297852,1017.081604 2262.042725,1003.818359 2181.115723,1000.619568 
	C2150.591064,999.413147 2119.931885,1001.296814 2089.344238,1002.149292 
	C2076.287109,1002.513245 2063.256592,1003.843262 2050.214111,1004.734253 
	C2051.153076,1002.146118 2052.604736,1001.080933 2054.144287,1000.163635 
	C2097.010254,974.624512 2141.257324,951.706604 2186.409912,930.507935 
	C2227.611328,911.164246 2269.596191,893.710938 2312.126709,877.489990 
	C2367.078125,856.531860 2422.834717,837.956543 2479.080078,820.895264 
	C2512.399170,810.788513 2546.097412,801.893127 2579.775146,793.022400 
	C2599.359131,787.863953 2619.110352,783.458069 2637.782471,775.313171 
	C2656.773682,767.028992 2670.244873,753.927979 2676.532471,733.714050 
	C2686.371582,702.082581 2687.031738,670.414734 2677.704590,638.634949 
	C2674.875488,628.996704 2670.290039,620.085999 2663.687500,612.452393 
	C2650.896484,597.664307 2634.393066,596.115417 2616.304688,598.931152 
	C2591.793945,602.746704 2568.824463,611.385071 2546.010986,620.459412 
	C2472.737549,649.605103 2397.627686,672.619080 2320.486084,689.011169 
	C2280.825928,697.438721 2240.643555,701.682007 2200.221191,703.492615 
	C2185.994873,704.129883 2171.682129,702.641296 2157.404053,702.359619 
	C2129.768311,701.814331 2102.591064,697.790833 2075.666748,691.833801 
	C2019.259155,679.353455 1968.197876,655.517456 1923.171875,619.216125 
	C1914.478271,612.206970 1906.757568,603.990784 1897.603394,595.408325 
	C1909.611572,581.359558 1919.503906,566.848083 1932.215576,555.492920 
	C1963.958740,527.136963 2001.015259,506.859070 2039.787842,489.650757 
	C2085.141846,469.521454 2132.367676,454.912994 2180.204346,442.164734 
	C2187.318359,440.268951 2192.182617,436.794586 2194.440186,429.822876 
	C2195.765381,425.731201 2197.562256,421.699280 2198.205322,417.496521 
	C2200.556396,402.129547 2202.772949,386.813843 2200.514160,371.086700 
	C2198.349854,356.020264 2198.043213,340.683685 2195.797363,325.633331 
	C2194.160645,314.664581 2192.642090,303.292999 2185.290527,293.744049 
	C2183.404541,294.005554 2181.743896,294.055695 2180.184326,294.478180 
	C2129.510010,308.205017 2079.321777,323.466797 2031.231445,344.753967 
	C1993.719604,361.358551 1958.341553,381.509674 1926.281128,407.552002 
	C1866.079346,456.453125 1843.027710,521.469177 1842.496582,596.506653 
	C1842.417358,607.696899 1844.083618,618.975098 1845.762451,630.088745 
	C1852.672241,675.831360 1872.496826,715.358704 1904.328125,748.798279 
	C1937.849731,784.013550 1979.241211,806.869995 2024.298462,823.544128 
	C2040.256958,829.449829 2056.737549,833.944153 2073.726318,839.318909 
	C2071.725098,840.721741 2070.225586,841.973694 2068.552246,842.916748 
	C2014.297974,873.488098 1961.834351,906.850830 1912.960327,945.496765 
	C1885.881104,966.908813 1859.507690,989.272217 1833.646240,1012.145081 
	C1816.203613,1027.571899 1800.308960,1044.740112 1783.481323,1060.878662 
	C1780.248169,1063.979248 1776.195801,1066.733154 1772.014893,1068.261108 
	C1721.140625,1086.856079 1671.104492,1107.422607 1622.364746,1131.085938 
	C1563.374634,1159.725830 1506.373657,1191.902344 1451.400024,1227.645996 
	C1402.849487,1259.213745 1356.339844,1293.580444 1311.357544,1330.044922 
	C1303.978149,1336.026855 1299.535278,1343.384399 1297.983276,1352.599854 
	C1297.103149,1357.825195 1295.940186,1363.069092 1295.756836,1368.334351 
	C1294.649414,1400.112061 1298.543945,1431.298584 1307.774414,1461.747559 
	C1309.266968,1466.671021 1311.708008,1471.306885 1314.020508,1476.813354 
	C1317.446899,1474.549683 1319.758789,1473.304932 1321.747437,1471.667603 
	C1388.916016,1416.361938 1460.464844,1367.406006 1536.259033,1324.748413 
	C1563.462524,1309.438354 1591.497681,1295.606201 1620.418091,1282.200439 
M1287.731812,1269.048584 
	C1287.710327,1262.391846 1288.125610,1255.689453 1287.436890,1249.102417 
	C1287.186646,1246.708374 1284.622314,1243.219482 1282.530029,1242.730957 
	C1280.445068,1242.244263 1276.810913,1244.286987 1275.315430,1246.303101 
	C1272.797363,1249.697754 1271.393677,1253.930176 1269.592285,1257.842896 
	C1265.746216,1266.196289 1261.945679,1274.570435 1257.608032,1284.071533 
	C1255.901245,1281.201050 1254.779175,1279.669067 1254.018433,1277.974854 
	C1250.078613,1269.200195 1246.321411,1260.342529 1242.296875,1251.607666 
	C1241.072998,1248.951172 1239.594360,1246.158203 1237.487183,1244.251221 
	C1236.069336,1242.968140 1233.001587,1242.245728 1231.299072,1242.901489 
	C1229.652466,1243.535400 1227.794189,1246.240723 1227.769165,1248.060303 
	C1227.511963,1266.696899 1227.659790,1285.338745 1227.567749,1303.978394 
	C1227.548462,1307.879150 1229.725342,1309.414673 1233.028687,1309.639282 
	C1236.715820,1309.890015 1238.428955,1307.835083 1238.406372,1304.132935 
	C1238.355591,1295.811768 1238.325684,1287.488892 1238.461182,1279.169434 
	C1238.493408,1277.187012 1239.208984,1275.215698 1239.610229,1273.239258 
	C1240.285522,1273.135254 1240.960693,1273.031372 1241.635986,1272.927368 
	C1243.950439,1278.222534 1245.738647,1283.840210 1248.730225,1288.720215 
	C1251.604248,1293.408447 1251.055420,1300.777344 1259.368042,1302.785522 
	C1264.467041,1291.862427 1269.526001,1281.024780 1274.584961,1270.187134 
	C1276.268188,1274.794312 1276.265015,1278.972534 1276.268921,1283.150635 
	C1276.275513,1290.140503 1275.964600,1297.155396 1276.502808,1304.104370 
	C1276.653809,1306.054443 1278.981934,1308.813110 1280.886230,1309.432129 
	C1284.114380,1310.481323 1286.635254,1308.208252 1287.476074,1304.954468 
	C1287.962891,1303.071045 1287.719727,1300.986816 1287.723633,1298.992798 
	C1287.741821,1289.672729 1287.731689,1280.352539 1287.731812,1269.048584 
M1200.379883,1274.973145 
	C1200.379883,1267.738770 1200.379883,1260.504395 1200.379883,1252.361450 
	C1206.416504,1252.361450 1211.335205,1252.319458 1216.252808,1252.376465 
	C1219.413208,1252.413086 1221.465332,1251.068115 1221.608276,1247.838867 
	C1221.769409,1244.199829 1219.768188,1242.350830 1216.117554,1242.319824 
	C1215.451416,1242.314209 1214.785278,1242.294800 1214.119141,1242.294678 
	C1201.792236,1242.292847 1189.464111,1242.191406 1177.138794,1242.330811 
	C1169.756104,1242.414307 1169.379150,1243.137817 1171.019775,1251.958252 
	C1176.750610,1252.231201 1182.620605,1252.510864 1189.619995,1252.844238 
	C1189.619995,1256.818115 1189.618408,1260.380371 1189.620361,1263.942749 
	C1189.627075,1276.936035 1189.619873,1289.929199 1189.651611,1302.922485 
	C1189.660889,1306.701660 1191.061523,1309.520752 1195.313110,1309.645630 
	C1199.959229,1309.782227 1200.486450,1306.729370 1200.425171,1302.964966 
	C1200.284058,1294.305054 1200.380005,1285.641357 1200.379883,1274.973145 
z"/>
<path fill="#FEFEFE" opacity="1.000000" stroke="none" 
	d="
M1619.153320,1281.099609 
	C1591.497681,1295.606201 1563.462524,1309.438354 1536.259033,1324.748413 
	C1460.464844,1367.406006 1388.916016,1416.361938 1321.747437,1471.667603 
	C1319.758789,1473.304932 1317.446899,1474.549683 1314.020508,1476.813354 
	C1311.708008,1471.306885 1309.266968,1466.671021 1307.774414,1461.747559 
	C1298.543945,1431.298584 1294.649414,1400.112061 1295.756836,1368.334351 
	C1295.940186,1363.069092 1297.103149,1357.825195 1297.983276,1352.599854 
	C1299.535278,1343.384399 1303.978149,1336.026855 1311.357544,1330.044922 
	C1356.339844,1293.580444 1402.849487,1259.213745 1451.400024,1227.645996 
	C1506.373657,1191.902344 1563.374634,1159.725830 1622.364746,1131.085938 
	C1671.104492,1107.422607 1721.140625,1086.856079 1772.014893,1068.261108 
	C1776.195801,1066.733154 1780.248169,1063.979248 1783.481323,1060.878662 
	C1800.308960,1044.740112 1816.203613,1027.571899 1833.646240,1012.145081 
	C1859.507690,989.272217 1885.881104,966.908813 1912.960327,945.496765 
	C1961.834351,906.850830 2014.297974,873.488098 2068.552246,842.916748 
	C2070.225586,841.973694 2071.725098,840.721741 2073.726318,839.318909 
	C2056.737549,833.944153 2040.256958,829.449829 2024.298462,823.544128 
	C1979.241211,806.869995 1937.849731,784.013550 1904.328125,748.798279 
	C1872.496826,715.358704 1852.672241,675.831360 1845.762451,630.088745 
	C1844.083618,618.975098 1842.417358,607.696899 1842.496582,596.506653 
	C1843.027710,521.469177 1866.079346,456.453125 1926.281128,407.552002 
	C1958.341553,381.509674 1993.719604,361.358551 2031.231445,344.753967 
	C2079.321777,323.466797 2129.510010,308.205017 2180.184326,294.478180 
	C2181.743896,294.055695 2183.404541,294.005554 2185.290527,293.744049 
	C2192.642090,303.292999 2194.160645,314.664581 2195.797363,325.633331 
	C2198.043213,340.683685 2198.349854,356.020264 2200.514160,371.086700 
	C2202.772949,386.813843 2200.556396,402.129547 2198.205322,417.496521 
	C2197.562256,421.699280 2195.765381,425.731201 2194.440186,429.822876 
	C2192.182617,436.794586 2187.318359,440.268951 2180.204346,442.164734 
	C2132.367676,454.912994 2085.141846,469.521454 2039.787842,489.650757 
	C2001.015259,506.859070 1963.958740,527.136963 1932.215576,555.492920 
	C1919.503906,566.848083 1909.611572,581.359558 1897.603394,595.408325 
	C1906.757568,603.990784 1914.478271,612.206970 1923.171875,619.216125 
	C1968.197876,655.517456 2019.259155,679.353455 2075.666748,691.833801 
	C2102.591064,697.790833 2129.768311,701.814331 2157.404053,702.359619 
	C2171.682129,702.641296 2185.994873,704.129883 2200.221191,703.492615 
	C2240.643555,701.682007 2280.825928,697.438721 2320.486084,689.011169 
	C2397.627686,672.619080 2472.737549,649.605103 2546.010986,620.459412 
	C2568.824463,611.385071 2591.793945,602.746704 2616.304688,598.931152 
	C2634.393066,596.115417 2650.896484,597.664307 2663.687500,612.452393 
	C2670.290039,620.085999 2674.875488,628.996704 2677.704590,638.634949 
	C2687.031738,670.414734 2686.371582,702.082581 2676.532471,733.714050 
	C2670.244873,753.927979 2656.773682,767.028992 2637.782471,775.313171 
	C2619.110352,783.458069 2599.359131,787.863953 2579.775146,793.022400 
	C2546.097412,801.893127 2512.399170,810.788513 2479.080078,820.895264 
	C2422.834717,837.956543 2367.078125,856.531860 2312.126709,877.489990 
	C2269.596191,893.710938 2227.611328,911.164246 2186.409912,930.507935 
	C2141.257324,951.706604 2097.010254,974.624512 2054.144287,1000.163635 
	C2052.604736,1001.080933 2051.153076,1002.146118 2050.214111,1004.734253 
	C2063.256592,1003.843262 2076.287109,1002.513245 2089.344238,1002.149292 
	C2119.931885,1001.296814 2150.591064,999.413147 2181.115723,1000.619568 
	C2262.042725,1003.818359 2341.297852,1017.081604 2418.043213,1043.861572 
	C2491.765137,1069.586426 2559.726074,1105.882202 2621.950195,1153.074951 
	C2653.821045,1177.247070 2683.746338,1203.577759 2711.613770,1232.216675 
	C2758.272217,1280.166748 2797.217773,1333.740356 2828.734131,1392.821289 
	C2849.435059,1431.627808 2866.692627,1471.858887 2880.857422,1513.420776 
	C2895.547607,1556.524414 2906.690430,1600.574341 2914.165283,1645.515381 
	C2918.896484,1673.962402 2923.123535,1702.474854 2924.392334,1731.343262 
	C2924.901855,1742.941284 2925.788574,1754.522827 2926.312256,1766.120483 
	C2926.881592,1778.723511 2927.805908,1791.347534 2927.569092,1803.943481 
	C2926.645264,1853.054199 2922.898438,1901.886963 2914.629639,1950.418213 
	C2903.305176,2016.885620 2884.677734,2081.111572 2857.259766,2142.637451 
	C2828.250977,2207.733154 2790.647461,2267.408691 2742.953857,2320.685547 
	C2686.110107,2384.183105 2619.555908,2434.690918 2543.092041,2472.091309 
	C2489.117188,2498.491943 2432.458496,2517.065918 2373.361572,2528.028809 
	C2345.975830,2533.109131 2318.400635,2536.476318 2290.578125,2538.588379 
	C2258.633057,2541.013916 2226.688721,2541.292480 2194.854248,2539.401611 
	C2141.138916,2536.211914 2088.247803,2527.292969 2036.248657,2513.022705 
	C1968.522827,2494.436523 1904.592041,2467.037109 1844.302734,2431.231445 
	C1802.181519,2406.215820 1763.032471,2377.081299 1726.590576,2344.222412 
	C1681.387817,2303.464111 1641.879883,2257.892578 1608.314697,2207.174072 
	C1560.308838,2134.635742 1527.263062,2055.730225 1507.792358,1970.991943 
	C1499.536987,1935.064331 1493.833374,1898.732666 1490.546631,1862.102417 
	C1487.247070,1825.326782 1486.889404,1788.401611 1488.209106,1751.448975 
	C1489.655273,1710.958618 1493.841064,1670.766235 1500.420654,1630.849243 
	C1508.089966,1584.321899 1519.161377,1538.553345 1533.018677,1493.458130 
	C1550.915771,1435.216919 1573.880981,1379.007812 1600.630005,1324.322632 
	C1607.198853,1310.893433 1614.533569,1297.838867 1622.147705,1283.503906 
	C1622.954346,1281.534668 1623.129395,1280.673340 1623.304321,1279.812134 
	C1621.920654,1280.241333 1620.536987,1280.670532 1619.153320,1281.099609 
M1527.450806,1809.709961 
	C1528.420288,1819.612549 1528.971069,1829.577271 1530.426514,1839.407837 
	C1540.362427,1906.515015 1562.535767,1969.484375 1595.672974,2028.554443 
	C1634.448853,2097.675781 1684.866211,2157.508301 1743.842896,2210.085938 
	C1799.028198,2259.283203 1860.413208,2299.216797 1927.677490,2330.157715 
	C2006.949097,2366.622070 2090.159912,2387.691895 2177.052246,2393.361084 
	C2212.185303,2395.653320 2247.502441,2395.325928 2282.769043,2392.541260 
	C2310.588623,2390.344727 2338.185059,2386.819580 2365.487305,2381.442627 
	C2437.348633,2367.289551 2505.586426,2342.896484 2569.772705,2307.412354 
	C2633.534912,2272.162598 2690.025879,2227.663818 2738.196045,2173.044922 
	C2802.638916,2099.974854 2846.404297,2015.774414 2871.040283,1921.536011 
	C2879.535400,1889.039673 2885.134033,1856.028320 2887.405273,1822.609131 
	C2889.116211,1797.436768 2888.858154,1772.171021 2886.585449,1746.882446 
	C2884.292236,1721.370728 2880.446289,1696.215698 2874.569092,1671.346558 
	C2858.718262,1604.274048 2830.137939,1542.786011 2792.141846,1485.561523 
	C2753.112793,1426.781616 2706.642822,1374.436523 2653.469482,1328.129028 
	C2607.629395,1288.207764 2557.542725,1254.470947 2503.074707,1227.363281 
	C2451.725586,1201.807739 2398.128662,1182.612427 2342.257080,1169.455200 
	C2284.874512,1155.942017 2226.715332,1149.135254 2167.900391,1147.780884 
	C2133.674805,1146.992798 2099.495605,1148.418335 2065.347168,1151.508301 
	C2030.329956,1154.676758 1995.576538,1159.347900 1961.012695,1165.709717 
	C1904.117065,1176.181763 1848.312012,1190.801392 1793.585327,1209.504883 
	C1789.380859,1210.941772 1785.115356,1213.536987 1782.048950,1216.721191 
	C1772.139038,1227.012207 1762.434692,1237.543701 1753.255737,1248.489502 
	C1676.867676,1339.581177 1614.749023,1439.288574 1571.037720,1550.163818 
	C1548.155151,1608.206421 1531.061768,1667.725952 1526.679077,1730.143799 
	C1524.866821,1755.955200 1526.654419,1782.019531 1527.450806,1809.709961 
z"/>
<path fill="#F2F2F2" opacity="1.000000" stroke="none" 
	d="
M1287.731812,1270.040527 
	C1287.731689,1280.352539 1287.741821,1289.672729 1287.723633,1298.992798 
	C1287.719727,1300.986816 1287.962891,1303.071045 1287.476074,1304.954468 
	C1286.635254,1308.208252 1284.114380,1310.481323 1280.886230,1309.432129 
	C1278.981934,1308.813110 1276.653809,1306.054443 1276.502808,1304.104370 
	C1275.964600,1297.155396 1276.275513,1290.140503 1276.268921,1283.150635 
	C1276.265015,1278.972534 1276.268188,1274.794312 1274.584961,1270.187134 
	C1269.526001,1281.024780 1264.467041,1291.862427 1259.368042,1302.785522 
	C1251.055420,1300.777344 1251.604248,1293.408447 1248.730225,1288.720215 
	C1245.738647,1283.840210 1243.950439,1278.222534 1241.635986,1272.927368 
	C1240.960693,1273.031372 1240.285522,1273.135254 1239.610229,1273.239258 
	C1239.208984,1275.215698 1238.493408,1277.187012 1238.461182,1279.169434 
	C1238.325684,1287.488892 1238.355591,1295.811768 1238.406372,1304.132935 
	C1238.428955,1307.835083 1236.715820,1309.890015 1233.028687,1309.639282 
	C1229.725342,1309.414673 1227.548462,1307.879150 1227.567749,1303.978394 
	C1227.659790,1285.338745 1227.511963,1266.696899 1227.769165,1248.060303 
	C1227.794189,1246.240723 1229.652466,1243.535400 1231.299072,1242.901489 
	C1233.001587,1242.245728 1236.069336,1242.968140 1237.487183,1244.251221 
	C1239.594360,1246.158203 1241.072998,1248.951172 1242.296875,1251.607666 
	C1246.321411,1260.342529 1250.078613,1269.200195 1254.018433,1277.974854 
	C1254.779175,1279.669067 1255.901245,1281.201050 1257.608032,1284.071533 
	C1261.945679,1274.570435 1265.746216,1266.196289 1269.592285,1257.842896 
	C1271.393677,1253.930176 1272.797363,1249.697754 1275.315430,1246.303101 
	C1276.810913,1244.286987 1280.445068,1242.244263 1282.530029,1242.730957 
	C1284.622314,1243.219482 1287.186646,1246.708374 1287.436890,1249.102417 
	C1288.125610,1255.689453 1287.710327,1262.391846 1287.731812,1270.040527 
z"/>
<path fill="#F7F7F7" opacity="1.000000" stroke="none" 
	d="
M1200.379883,1275.976074 
	C1200.380005,1285.641357 1200.284058,1294.305054 1200.425171,1302.964966 
	C1200.486450,1306.729370 1199.959229,1309.782227 1195.313110,1309.645630 
	C1191.061523,1309.520752 1189.660889,1306.701660 1189.651611,1302.922485 
	C1189.619873,1289.929199 1189.627075,1276.936035 1189.620361,1263.942749 
	C1189.618408,1260.380371 1189.619995,1256.818115 1189.619995,1252.844238 
	C1182.620605,1252.510864 1176.750610,1252.231201 1171.019775,1251.958252 
	C1169.379150,1243.137817 1169.756104,1242.414307 1177.138794,1242.330811 
	C1189.464111,1242.191406 1201.792236,1242.292847 1214.119141,1242.294678 
	C1214.785278,1242.294800 1215.451416,1242.314209 1216.117554,1242.319824 
	C1219.768188,1242.350830 1221.769409,1244.199829 1221.608276,1247.838867 
	C1221.465332,1251.068115 1219.413208,1252.413086 1216.252808,1252.376465 
	C1211.335205,1252.319458 1206.416504,1252.361450 1200.379883,1252.361450 
	C1200.379883,1260.504395 1200.379883,1267.738770 1200.379883,1275.976074 
z"/>
<path fill="#000000" opacity="1.000000" stroke="none" 
	d="
M1527.127808,1808.839355 
	C1526.654419,1782.019531 1524.866821,1755.955200 1526.679077,1730.143799 
	C1531.061768,1667.725952 1548.155151,1608.206421 1571.037720,1550.163818 
	C1614.749023,1439.288574 1676.867676,1339.581177 1753.255737,1248.489502 
	C1762.434692,1237.543701 1772.139038,1227.012207 1782.048950,1216.721191 
	C1785.115356,1213.536987 1789.380859,1210.941772 1793.585327,1209.504883 
	C1848.312012,1190.801392 1904.117065,1176.181763 1961.012695,1165.709717 
	C1995.576538,1159.347900 2030.329956,1154.676758 2065.347168,1151.508301 
	C2099.495605,1148.418335 2133.674805,1146.992798 2167.900391,1147.780884 
	C2226.715332,1149.135254 2284.874512,1155.942017 2342.257080,1169.455200 
	C2398.128662,1182.612427 2451.725586,1201.807739 2503.074707,1227.363281 
	C2557.542725,1254.470947 2607.629395,1288.207764 2653.469482,1328.129028 
	C2706.642822,1374.436523 2753.112793,1426.781616 2792.141846,1485.561523 
	C2830.137939,1542.786011 2858.718262,1604.274048 2874.569092,1671.346558 
	C2880.446289,1696.215698 2884.292236,1721.370728 2886.585449,1746.882446 
	C2888.858154,1772.171021 2889.116211,1797.436768 2887.405273,1822.609131 
	C2885.134033,1856.028320 2879.535400,1889.039673 2871.040283,1921.536011 
	C2846.404297,2015.774414 2802.638916,2099.974854 2738.196045,2173.044922 
	C2690.025879,2227.663818 2633.534912,2272.162598 2569.772705,2307.412354 
	C2505.586426,2342.896484 2437.348633,2367.289551 2365.487305,2381.442627 
	C2338.185059,2386.819580 2310.588623,2390.344727 2282.769043,2392.541260 
	C2247.502441,2395.325928 2212.185303,2395.653320 2177.052246,2393.361084 
	C2090.159912,2387.691895 2006.949097,2366.622070 1927.677490,2330.157715 
	C1860.413208,2299.216797 1799.028198,2259.283203 1743.842896,2210.085938 
	C1684.866211,2157.508301 1634.448853,2097.675781 1595.672974,2028.554443 
	C1562.535767,1969.484375 1540.362427,1906.515015 1530.426514,1839.407837 
	C1528.971069,1829.577271 1528.420288,1819.612549 1527.127808,1808.839355 
z"/>
<path fill="#000000" opacity="1.000000" stroke="none" 
	d="
M1619.785645,1281.650024 
	C1620.536987,1280.670532 1621.920654,1280.241333 1623.304321,1279.812134 
	C1623.129395,1280.673340 1622.954346,1281.534668 1622.270264,1282.800049 
	C1621.313477,1282.869507 1620.865723,1282.534912 1619.785645,1281.650024 
z"/>
</svg>