<svg xmlns="http://www.w3.org/2000/svg" width="4500" height="3000" viewBox="0 0 4500 3000" version="1.1">
	<path d="M 2160 296.581 C 2064.246 323.576, 1999.085 351.035, 1948.659 385.640 C 1891.796 424.664, 1859.275 469.749, 1846.558 527.188 C 1827.536 613.101, 1846.672 689.644, 1901.481 746.873 C 1933.465 780.270, 1980.005 807.872, 2034.672 825.867 C 2042.828 828.551, 2054.559 832.008, 2060.742 833.549 C 2066.925 835.089, 2071.875 836.429, 2071.742 836.525 C 2071.609 836.622, 2064.975 840.431, 2057 844.991 C 2002.125 876.367, 1952.315 909.546, 1904.095 946.845 C 1866.353 976.039, 1838.716 1000.333, 1802.464 1036.186 L 1774.428 1063.914 1755.096 1070.965 C 1601.261 1127.078, 1451.607 1212.078, 1319.674 1318.274 C 1310.419 1325.723, 1301.742 1333.317, 1300.390 1335.149 C 1293.211 1344.880, 1290.305 1370.272, 1293.026 1399.500 C 1296.263 1434.275, 1306.100 1473.016, 1311.687 1472.992 C 1312.684 1472.988, 1318 1469.321, 1323.500 1464.844 C 1393.433 1407.910, 1471.496 1355.586, 1554.573 1309.959 C 1575.994 1298.194, 1620.025 1275.692, 1620.566 1276.233 C 1620.818 1276.485, 1617.407 1283.398, 1612.986 1291.596 C 1546.452 1414.955, 1502.680 1554.966, 1489.058 1688 C 1485.230 1725.385, 1484.535 1740.060, 1484.535 1783.500 C 1484.535 1827.286, 1485.323 1843.598, 1489.073 1877.500 C 1506.475 2034.812, 1566.558 2172.429, 1667.251 2285.608 C 1808.324 2444.174, 2019.716 2538.085, 2235.361 2537.990 C 2442.005 2537.900, 2627.380 2453.129, 2754.701 2300.500 C 2885.790 2143.354, 2945.800 1913.886, 2916.450 1682 C 2897.284 1530.572, 2840.542 1390.572, 2754.532 1282.500 C 2722.964 1242.835, 2680.472 1200.262, 2638.500 1166.248 C 2524.369 1073.756, 2387.643 1017.880, 2238 1002.574 C 2201.907 998.882, 2192.955 998.500, 2143.500 998.545 C 2096.292 998.588, 2074.651 999.495, 2046.500 1002.609 L 2041.500 1003.162 2051 997.462 C 2130.604 949.693, 2233.553 901.882, 2339 863.710 C 2413.855 836.612, 2521.822 802.974, 2569 792.052 C 2618.860 780.509, 2638.841 773.126, 2654.298 760.535 C 2668.429 749.024, 2677.440 725.840, 2680.093 694.169 C 2683.309 655.787, 2672.661 618.998, 2654.110 604.393 C 2645.244 597.413, 2639.547 595.616, 2626.500 595.684 C 2605.283 595.796, 2584.270 601.610, 2535.283 620.924 C 2505.238 632.769, 2483.149 640.477, 2443.068 653.102 C 2361.131 678.912, 2297.339 692.811, 2234 698.655 C 2207.813 701.071, 2154.805 701.073, 2131 698.660 C 2087.183 694.217, 2049.380 685.415, 2013.500 671.302 C 1973.056 655.394, 1927.971 626.894, 1902.689 601.254 L 1894.878 593.333 1906.660 577.916 C 1920.290 560.083, 1926.721 553.431, 1940.529 542.885 C 1994.176 501.916, 2062.035 471.464, 2161 443.949 C 2172.825 440.661, 2183.625 437.146, 2185 436.136 C 2194.500 429.163, 2199.276 400.553, 2197.017 364.147 C 2194.653 326.060, 2187.206 292.220, 2180.987 291.303 C 2180.169 291.183, 2170.725 293.558, 2160 296.581 M 2103.500 1146.029 C 2004.915 1150.853, 1901.630 1170.338, 1801.810 1202.945 L 1783.119 1209.051 1773.684 1219.275 C 1648.648 1354.770, 1548.992 1545.295, 1527.467 1690 C 1522.582 1722.837, 1520.740 1766.431, 1522.925 1797.500 C 1531.188 1915.026, 1577.797 2025.479, 1661.547 2126 C 1779.165 2267.172, 1942.573 2359.749, 2118.606 2384.941 C 2158.677 2390.676, 2171.141 2391.462, 2222 2391.462 C 2271.863 2391.462, 2284.588 2390.694, 2322.500 2385.395 C 2526.488 2356.887, 2701.526 2245.426, 2799.739 2081.500 C 2837.866 2017.864, 2865.535 1943.172, 2877.507 1871.567 C 2902.145 1724.213, 2863.959 1581.553, 2764.393 1448.986 C 2633.159 1274.254, 2450.161 1170.946, 2234 1149.563 C 2195.707 1145.775, 2139.691 1144.258, 2103.500 1146.029 M 1167.200 1241.200 C 1166.540 1241.860, 1166 1243.570, 1166 1245 C 1166 1249.256, 1167.666 1250, 1177.200 1250 L 1186 1250 1186.014 1275.750 C 1186.021 1289.912, 1186.300 1302.517, 1186.633 1303.761 C 1187.315 1306.304, 1190.736 1307.534, 1194.500 1306.589 L 1197 1305.962 1197 1277.981 L 1197 1250 1206.300 1250 C 1216.360 1250, 1218 1249.299, 1218 1245 C 1218 1240.147, 1217.234 1240, 1192 1240 C 1174.978 1240, 1168.066 1240.334, 1167.200 1241.200 M 1225.571 1241.571 C 1224.211 1242.932, 1224 1247.285, 1224 1274.036 C 1224 1303.556, 1224.086 1304.976, 1225.934 1305.965 C 1228.621 1307.403, 1232.541 1307.258, 1233.856 1305.673 C 1234.557 1304.829, 1235.056 1296.950, 1235.229 1284.004 L 1235.500 1263.661 1243.081 1281.022 C 1250.565 1298.163, 1252.312 1300.862, 1255.203 1299.752 C 1256.014 1299.441, 1260.238 1291.179, 1264.589 1281.392 L 1272.500 1263.597 1272.771 1283.972 C 1272.944 1296.941, 1273.443 1304.829, 1274.144 1305.673 C 1275.650 1307.488, 1280.512 1307.345, 1282.429 1305.429 C 1283.787 1304.071, 1284 1299.823, 1284 1274.151 C 1284 1241.220, 1283.784 1240, 1277.943 1240 C 1273.711 1240, 1272.086 1242.123, 1266.055 1255.531 C 1254.903 1280.321, 1253.963 1282.296, 1253.527 1281.860 C 1253.280 1281.614, 1249.427 1273.107, 1244.963 1262.956 C 1240.500 1252.805, 1235.904 1243.487, 1234.750 1242.250 C 1232.302 1239.625, 1227.847 1239.296, 1225.571 1241.571" stroke="none" fill="#000000" fill-rule="evenodd"/>
</svg>